<svg width="64" height="82" viewBox="0 0 64 82" fill="none" xmlns="http://www.w3.org/2000/svg">
<path d="M31.9642 21.1589C31.9642 19.8933 32.9864 18.8674 34.2474 18.8674C35.5083 18.8674 36.5305 19.8933 36.5305 21.1589V60.1139C36.5305 61.3795 35.5083 62.4054 34.2474 62.4054C32.9864 62.4054 31.9642 61.3795 31.9642 60.1139V21.1589Z" fill="white"/>
<path d="M41.0969 29.179C41.0969 27.9135 42.1191 26.8876 43.38 26.8876C44.641 26.8876 45.6632 27.9135 45.6632 29.179V52.0938C45.6632 53.3593 44.641 54.3852 43.38 54.3852C42.1191 54.3852 41.0969 53.3593 41.0969 52.0938V29.179Z" fill="white"/>
<path d="M50.2295 37.1992C50.2295 35.9336 51.2517 34.9077 52.5127 34.9077C53.7736 34.9077 54.7958 35.9336 54.7958 37.1992V44.0736C54.7958 45.3392 53.7736 46.3651 52.5127 46.3651C51.2517 46.3651 50.2295 45.3392 50.2295 44.0736V37.1992Z" fill="white"/>
<path d="M59.3621 40.6364C59.3621 39.3709 60.3843 38.3449 61.6453 38.3449C62.9062 38.3449 63.9285 39.3709 63.9285 40.6364C63.9285 41.9019 62.9062 42.9279 61.6453 42.9279C60.3843 42.9279 59.3621 41.9019 59.3621 40.6364Z" fill="white"/>
<path d="M0 4.59171L3.56585e-06 76.6811C3.56585e-06 80.5667 4.51544 82.6893 7.48961 80.2018L26.1656 64.5818C26.9465 63.9287 27.3979 62.9613 27.3979 61.9412V58.9682C27.3979 57.7026 28.4201 56.6767 29.6811 56.6767C30.942 56.6767 31.9642 57.7026 31.9642 58.9682V59.732L36.5305 55.9129V52.0938C36.5305 50.8282 37.5528 49.8023 38.8137 49.8023C40.0746 49.8023 41.0969 50.8282 41.0969 52.0938L45.6632 48.2746V44.0736C45.6632 42.8081 46.6854 41.7821 47.9463 41.7821C49.2073 41.7821 50.2295 42.8081 50.2295 44.0736L50.2295 44.4555L50.5863 44.1571C52.777 42.3249 52.777 38.9479 50.5863 37.1157L50.2295 36.8173L50.2295 37.1992C50.2295 38.4647 49.2073 39.4907 47.9463 39.4907C46.6854 39.4907 45.6632 38.4647 45.6632 37.1992V32.9981L41.0969 29.179C41.0969 30.4446 40.0746 31.4705 38.8137 31.4705C37.5528 31.4705 36.5305 30.4446 36.5305 29.179V25.3599L31.9642 21.5408V22.3046C31.9642 23.5702 30.942 24.5961 29.6811 24.5961C28.4201 24.5961 27.3979 23.5702 27.3979 22.3046L27.3979 19.3316C27.3979 18.3115 26.9465 17.3441 26.1656 16.691L7.4896 1.07099C4.51543 -1.41651 -1.69228e-07 0.706117 0 4.59171Z" fill="white"/>
</svg>
